<?xml version="1.0" encoding="UTF-8" standalone="no"?>
<!-- Created with Inkscape (http://www.inkscape.org/) -->

<svg
   width="57.734764mm"
   height="50.000004mm"
   viewBox="0 0 218.21014 188.97639"
   version="1.1"
   id="svg1"
   xml:space="preserve"
   sodipodi:docname="logos_cvar_design.svg"
   inkscape:version="1.4.2 (1:1.4.2+202505120738+ebf0e940d0)"
   xmlns:inkscape="http://www.inkscape.org/namespaces/inkscape"
   xmlns:sodipodi="http://sodipodi.sourceforge.net/DTD/sodipodi-0.dtd"
   xmlns="http://www.w3.org/2000/svg"
   xmlns:svg="http://www.w3.org/2000/svg"><sodipodi:namedview
     id="namedview1"
     pagecolor="#ffffff"
     bordercolor="#000000"
     borderopacity="0.25"
     inkscape:showpageshadow="2"
     inkscape:pageopacity="0.0"
     inkscape:pagecheckerboard="0"
     inkscape:deskcolor="#d1d1d1"
     inkscape:document-units="mm"
     showgrid="false"
     inkscape:zoom="1.4142136"
     inkscape:cx="-491.43921"
     inkscape:cy="974.03959"
     inkscape:window-width="1850"
     inkscape:window-height="1016"
     inkscape:window-x="70"
     inkscape:window-y="387"
     inkscape:window-maximized="1"
     inkscape:current-layer="layer8"
     showguides="false"><inkscape:grid
       id="grid2"
       units="mm"
       originx="642.09813"
       originy="-145.43791"
       spacingx="3.7795276"
       spacingy="3.7795277"
       empcolor="#0099e5"
       empopacity="0.30196078"
       color="#0099e5"
       opacity="0.14901961"
       empspacing="5"
       enabled="true"
       visible="false" /><inkscape:page
       x="-3.3790676e-13"
       y="0"
       width="218.21014"
       height="188.97639"
       id="page2"
       margin="0"
       bleed="0" /></sodipodi:namedview><defs
     id="defs1" /><g
     inkscape:groupmode="layer"
     id="layer6"
     inkscape:label="Rediseño logo"
     transform="translate(642.09815,-145.4379)"><g
       id="g1245"
       transform="matrix(1.9643357,0,0,1.9643357,-62.792284,-464.22094)"><path
         d="m -239.36886,358.46616 -10.14508,17.57247 h 20.29017 z"
         style="fill:#404040;fill-opacity:1;stroke:#000000;stroke-width:0"
         id="path1219"
         inkscape:label="negro3b" /><path
         d="m -239.36886,358.46616 10.14594,17.57247 10.14509,-17.57247 z"
         style="fill:#333333;fill-opacity:1;stroke:#000000;stroke-width:0"
         id="path1220"
         inkscape:label="negro2b" /><path
         d="m -229.22377,340.89368 -10.14509,17.57248 h 20.29103 l -10.14509,-17.57248 z"
         style="fill:#000000;fill-opacity:1;stroke:#000000;stroke-width:0"
         id="path1221"
         inkscape:label="negro1b" /><path
         d="m -249.51394,340.89368 10.14508,17.57248 10.14509,-17.57248 z"
         style="fill:#404040;fill-opacity:1;stroke:#000000;stroke-width:0"
         id="path1222"
         inkscape:label="negro3a" /><path
         d="m -249.5148,340.89368 -10.14508,17.57248 h 20.29102 z"
         style="fill:#333333;fill-opacity:1;stroke:#000000;stroke-width:0"
         id="path1223"
         inkscape:label="negro2a" /><path
         d="m -259.65988,358.46616 10.14508,17.57247 10.14594,-17.57247 z"
         style="fill:#000000;fill-opacity:1;stroke:#000000;stroke-width:0"
         id="path1224"
         inkscape:label="negro1a" /><path
         d="m -233.52005,361.8429 4.61236,7.98912 4.61237,-7.98912 z"
         style="fill:#ffffff;stroke:#000000;stroke-width:0;stroke-dasharray:none"
         id="path1225"
         inkscape:label="blanco" /><path
         d="m -239.36886,358.46616 -10.14508,17.57248 h 20.29017 z"
         style="fill:#404040;fill-opacity:1;stroke:#000000;stroke-width:0"
         id="path1226"
         inkscape:label="negro3b" /><path
         d="m -239.36886,358.46616 10.14594,17.57248 10.14509,-17.57248 z"
         style="fill:#333333;fill-opacity:1;stroke:#000000;stroke-width:0"
         id="path1227"
         inkscape:label="negro2b" /><path
         d="m -229.22377,340.89368 -10.14509,17.57248 h 20.29103 l -10.14509,-17.57248 z"
         style="fill:#000000;fill-opacity:1;stroke:#000000;stroke-width:0"
         id="path1228"
         inkscape:label="negro1b" /><path
         d="m -249.51394,340.89368 10.14508,17.57248 10.14509,-17.57248 z"
         style="fill:#404040;fill-opacity:1;stroke:#000000;stroke-width:0"
         id="path1229"
         inkscape:label="negro3a" /><path
         d="m -249.5148,340.89368 -10.14508,17.57248 h 20.29102 z"
         style="fill:#333333;fill-opacity:1;stroke:#000000;stroke-width:0"
         id="path1230"
         inkscape:label="negro2a" /><path
         d="m -259.65988,358.46616 10.14508,17.57248 10.14594,-17.57248 z"
         style="fill:#000000;fill-opacity:1;stroke:#000000;stroke-width:0"
         id="path1231"
         inkscape:label="negro1a" /><path
         d="m -233.52005,361.84291 4.61236,7.98912 4.61237,-7.98912 z"
         style="fill:#ffffff;stroke:#000000;stroke-width:0;stroke-dasharray:none"
         id="path1232"
         inkscape:label="blanco" /><path
         d="m -211.59737,406.56758 -13.23536,-22.92386 h -29.07226 l -13.23537,22.92386 z"
         style="fill:#00a1e5;fill-opacity:1;stroke:#000000;stroke-width:0"
         id="path1233"
         inkscape:label="azul3b" /><path
         d="m -183.82588,358.46615 h -26.46987 l -14.53698,25.17757 13.23536,22.92386 z"
         style="fill:#0079cc;fill-opacity:0.996078;stroke:#000000;stroke-width:0"
         id="path1234"
         inkscape:label="azul2b" /><path
         d="m -224.83273,333.28858 14.53698,25.17757 h 26.46987 l -27.77149,-48.10228 z"
         style="fill:#0062b2;fill-opacity:1;stroke:#000000;stroke-width:0"
         id="path1235"
         inkscape:label="azul1b" /><path
         d="m -267.14036,310.36387 13.23537,22.92471 h 29.07226 l 13.23536,-22.92471 z"
         style="fill:#00a1e5;fill-opacity:1;stroke:#000000;stroke-width:0"
         id="path1236"
         inkscape:label="azul3a" /><path
         d="m -267.14036,310.36387 -27.77149,48.10228 h 26.46988 l 14.53698,-25.17757 z"
         style="fill:#0079cc;fill-opacity:0.996078;stroke:#000000;stroke-width:0"
         id="path1237"
         inkscape:label="azul2a" /><path
         d="m -267.14036,406.56758 13.23537,-22.92386 -14.53698,-25.17757 h -26.46988 z"
         style="fill:#0062b2;fill-opacity:1;stroke:#000000;stroke-width:0"
         id="path1238"
         inkscape:label="azul1a" /><path
         d="m -253.90478,333.28852 -14.53676,25.17769 14.53676,25.17769 h 29.07228 l 14.53676,-25.17769 -14.53676,-25.17769 z m 4.38981,7.60503 10.14572,17.57266 -10.1445,-17.57266 h 20.29022 l 10.14572,17.57266 -10.14572,17.57267 h -20.29022 l 10.1445,-17.57267 -10.14572,17.57267 -10.1445,-17.57267 z"
         style="fill:#ffffff;stroke-width:0.433308"
         id="path1239"
         inkscape:label="blanco" /><path
         d="m -211.59737,406.56758 -13.23536,-22.92386 h -29.07226 l -13.23537,22.92386 z"
         style="fill:#00a1e5;fill-opacity:1;stroke:#000000;stroke-width:0"
         id="path1240"
         inkscape:label="azul3b" /><path
         d="m -183.82588,358.46615 h -26.46987 l -14.53698,25.17757 13.23536,22.92386 z"
         style="fill:#0079cc;fill-opacity:0.996078;stroke:#000000;stroke-width:0"
         id="path1241"
         inkscape:label="azul2b" /><path
         d="m -224.83273,333.28858 14.53698,25.17757 h 26.46987 l -27.77149,-48.10228 z"
         style="fill:#0062b2;fill-opacity:1;stroke:#000000;stroke-width:0"
         id="path1242"
         inkscape:label="azul1b" /><path
         d="m -267.14036,310.36387 13.23537,22.92471 h 29.07226 l 13.23536,-22.92471 z"
         style="fill:#00a1e5;fill-opacity:1;stroke:#000000;stroke-width:0"
         id="path1243"
         inkscape:label="azul3a" /><path
         d="m -267.14036,310.36387 -27.77149,48.10228 h 26.46988 l 14.53698,-25.17757 z"
         style="fill:#0079cc;fill-opacity:0.996078;stroke:#000000;stroke-width:0"
         id="path1244"
         inkscape:label="azul2a" /><path
         d="m -267.14036,406.56758 13.23537,-22.92386 -14.53698,-25.17757 h -26.46988 z"
         style="fill:#0062b2;fill-opacity:1;stroke:#000000;stroke-width:0"
         id="path1245"
         inkscape:label="azul1a" /></g></g></svg>
